<svg xmlns="http://www.w3.org/2000/svg" viewBox="0 0 115 146.94"><defs><style>.cls-1{fill:#050505;}.cls-2{fill:#060606;}.cls-3{fill:#080808;}.cls-4{fill:#0a0a0a;}.cls-5{fill:#090909;}.cls-6{fill:#0e0e0e;}.cls-7{fill:#161616;}.cls-8{fill:#0f0f0f;}.cls-9{fill:#0c0c0c;}.cls-10{fill:#111;}.cls-11{fill:#1b1b1b;}</style></defs><title>Ресурс 1</title><g id="Слой_2" data-name="Слой 2"><g id="Слой_1-2" data-name="Слой 1"><path class="cls-1" d="M77.08,111.24a52,52,0,0,0,9.13-12.5A53,53,0,0,0,89,92.65a52,52,0,0,0,2.7-10.22c-.08,1.15-.09,2.08-.09,2.73,0,.48,0,.68,0,1.27,0,.76,0,1.51,0,2.27-.11,1.58-.39,3.15-.62,4.72s-.4,3.17-.76,4.72C88.27,106,86.55,114,81.45,120.61c-4.57,5.93-9.44,11.64-14.1,17.51-2,2.49-3.78,5.11-5.61,7.71-.87,1.24-1.82,1.52-2.93.44-7.89-7.67-16.34-14.81-22.6-24a62,62,0,0,1-8.12-16.67c-.41-1.35-.76-2.68-.76-2.68s-.32-1.25-.61-2.75c-.61-3.15-.93-5.66-.93-5.66v-.07A99.87,99.87,0,0,1,25,80.93c.23,2,1.3,10.66,5.17,17.83,2.43,4.52,5.46,7.53,6.75,9.7a5.71,5.71,0,0,0,1.1,1.25c1.16,1,2.19,1.46,2.37-.75,0-.23.16-.44.2-.67.56-3.73,2.15-6.58,5.72-8.45,3.15-1.65,6.17-3,9.84-3A30.18,30.18,0,0,1,70.6,100a10.26,10.26,0,0,1,3.48,2.83c.84,1.1.89,2,2.15,5.89C76.58,109.8,76.88,110.67,77.08,111.24Zm-35,1.31c-.06,2,.39,3.67,2.28,4.84,2.56,1.59,5,3.35,7.5,5.09,1.44,1,2.26.67,2.78-1,.63-2,1.34-4,2.11-6,.2-.55.47-1.28,1.27-1.24s1,.76,1.23,1.31c.74,1.66,1.38,3.37,2.11,5s2,2.18,3.63,1.14c2.29-1.43,4.6-2.83,6.9-4.25,2.86-1.76,3.44-3.42,2.26-6.55A7.1,7.1,0,0,0,70.5,107c-1.62-.81-3.29-1.56-4.87-2.46a5.24,5.24,0,0,0-5-.38,4.17,4.17,0,0,1-3.7.24c-2.49-1.43-4.55-.5-6.71.63-1.62.85-3.25,1.67-4.91,2.42A5.16,5.16,0,0,0,42.07,112.55Z"/><path class="cls-2" d="M32.21,9.21C39.17,4,46.06,4.38,53.1,6.89c10,3.57,17.2,10.35,22.1,19.67,1,1.81,2.5,4.35,1.35,5.71s-3.89.16-5.85-.43c-5.26-1.59-9.09-5-12.17-9.45a54.21,54.21,0,0,0-4.77-6.27A21.63,21.63,0,0,0,36,9Z"/><path class="cls-3" d="M25.87,16.26c7.2-7.94,18.47-5.87,25-.1a29.82,29.82,0,0,1,4.63,5.46,39.35,39.35,0,0,0,5.43,7,39.21,39.21,0,0,0,7.12,5c-4.13,1.3-7.63.8-11.7-1.6A79.46,79.46,0,0,1,43.54,22c-4.65-4.21-9.9-6.25-16.14-5.74C27,16.28,26.63,16.26,25.87,16.26Z"/><path class="cls-3" d="M48.34,2.91A28.18,28.18,0,0,1,65.71,4.07C76.16,8.36,82.86,15.88,84.84,27.23c.55,3.09-1.37,4.93-4.61,4.49-.72-.09-.88-.49-1.07-1C74,15.24,62.73,7.26,48.34,2.91Z"/><path class="cls-4" d="M87.46,29.16C85.68,15.47,77.86,5.35,62.8.75c.44-1,1.29-.74,2-.7,7.5.35,14.63,1.87,20.47,7,4.64,4.11,7.57,9,6.37,15.49A10.36,10.36,0,0,1,87.46,29.16Z"/><path class="cls-5" d="M30,18.17A17,17,0,0,1,41.31,23,66.55,66.55,0,0,0,54.19,33.2c.57.33,1.25.64,1,1.41s-.9.1-1.36,0c-7.21-.74-13.24-4.22-18.94-8.34-3.75-2.72-7.68-4-12.24-2.45-.56.19-1.6.25-1.8-.05-.57-.83.53-1.15.92-1.65A9.37,9.37,0,0,1,30,18.17Z"/><path class="cls-6" d="M54,49V62.49c2.66-1.62,3.55-4.58,6.1-5.71a5.55,5.55,0,0,1,1.86,0l-3.27,3.68c-.38.44-1.13,1.08,0,1.38,3.38.93,2.67,3.91,3.22,6.23a12.16,12.16,0,0,1,0,2.63c0,.76.13,1.54,1,1.67a1.63,1.63,0,0,0,1.73-1c.42-.89.75-1.81,1.24-3,.58,2.63-.41,5.33-2.17,6.49A3,3,0,0,1,59.05,73a16.84,16.84,0,0,1-.45-5.7c0-1.37-.15-2.69-1.81-2.86s-2.19,1.06-2.56,2.32c-.64,2.19-.39,4.45-.34,6.68,0,1.22-.44,1.43-1.53,1.44s-1.48-.37-1.47-1.51c0-7.36.09-14.72,0-22.08C50.83,49,52.72,50.3,54,49Z"/><path class="cls-6" d="M87,72a16.23,16.23,0,0,1-6.07,3.1,10.37,10.37,0,0,1-12-7.34,9.34,9.34,0,0,1,6.62-11.31c5.08-1.29,9.14-.51,12.21,3.14A8.25,8.25,0,0,1,89.85,65c0,2.64,0,5.27,0,7.9,0,.8.34,1.84-1.08,1.94s-1.6-.68-1.56-1.78A7.79,7.79,0,0,0,87,72ZM79.26,73c4.63,0,8-3,8-7.28s-3.44-7.63-8.07-7.6-8,3.29-7.93,7.49S74.59,72.93,79.26,73Z"/><path class="cls-6" d="M43.45,71.7c-3.51,3.22-7.26,4.19-11.45,2.85-4.89-1.56-7.29-5.63-6.61-11,.51-4,4.57-7.56,9-7.9,7.41-.56,12.09,3.8,12.09,11.26,0,1.91,0,3.83,0,5.74,0,1.06,0,2.2-1.5,2.19s-1.35-1.07-1.36-2.05A11,11,0,0,0,43.45,71.7ZM35.7,57.85c-4.48.06-7.88,3.32-7.87,7.54S31.38,73,36,72.91s7.68-3.25,7.65-7.67S40.26,57.79,35.7,57.85Z"/><path class="cls-7" d="M15.81,50.37C13.7,53,13.76,54.54,16,57.09a41.58,41.58,0,0,1,3.29,4.1,8.22,8.22,0,0,1-1.78,11.29c-3.61,3-7.78,3.54-12.17,2.65C1.76,74.41-.24,71.92,0,69.06a7.76,7.76,0,0,1,7.21-6.73c3.69-.15,6.1,2,5.73,5.06-.13,1-.13,1-1.75,2.26,0-1.17,1.17-2,.58-3.11a3.29,3.29,0,0,0-2.38-1.77C6,63.94,2.65,65.48,2,68.14a4.4,4.4,0,0,0,3.17,5.78,10.36,10.36,0,0,0,9.53-1.47c3.7-2.74,4.25-6.78,1.45-10.45-.92-1.2-2-2.28-2.9-3.49-2.59-3.49-1.44-7.44,2.6-9.11Z"/><path class="cls-8" d="M104.62,48.47c-2.66,4.35-3.3,9.35-4.54,14.16-.69,2.69-1.18,5.42-1.81,8.13-.22.93-.71,1.86.15,2.67s1.58-.15,2.36-.36a6.09,6.09,0,0,1,1.16-.11c-1.15,1.92-4.78,3.1-6.56,2.18a2,2,0,0,1-.95-2.25c1-7,2.16-13.93,5.11-20.4A10,10,0,0,1,103.65,48,1,1,0,0,1,104.62,48.47Z"/><path class="cls-9" d="M39.45,32.27c-3,1.74-5.71,1.74-8.29.26C26.73,30,22.39,29.38,18,32.77c.07-5.18,6.24-8.89,11.24-6.93C33,27.31,36,29.91,39.45,32.27Z"/><path class="cls-9" d="M18.05,40.42c-1.12-3.91,1.05-7.14,5-7.42a11.49,11.49,0,0,1,6.85,1.54c.76.45,2.1.67,1.72,1.85a2.67,2.67,0,0,1-2.73,1.91,6.75,6.75,0,0,1-1.19-.11C22.15,37,22.15,37,18.05,40.42Z"/><path class="cls-9" d="M98.23,43.38l-9.3-10.45c2.39-2.84,2.65-2.86,5.32-.34C97.63,35.76,98.67,38.46,98.23,43.38Z"/><path class="cls-10" d="M100,36.46a24.7,24.7,0,0,0-6.55-7.4c-1.62-1.28.32-2.27.52-3.4s1-.55,1.66-.28C99.07,26.83,100.81,30.91,100,36.46Z"/><path class="cls-7" d="M19.34,45.84c-.15-5.56,3-7,9.73-4.61Z"/><path class="cls-11" d="M15.81,50.37v-1c2.91-1.45,5.91-1,7.15.91a3.6,3.6,0,0,1,.46,2.95,1.37,1.37,0,0,1-1.84,1c-.77-.18-1-.71-.92-1.43.29-3.17-1-4.07-4-2.9A7.36,7.36,0,0,0,15.81,50.37Z"/><path class="cls-11" d="M104.62,48.47a1,1,0,0,0-1-.5A13.34,13.34,0,0,1,115,45.5c-1.52,2.26-1.51,2.21-4,1.72C108.74,46.78,106.48,46.66,104.62,48.47Z"/><path class="cls-11" d="M95.71,46.38c-2.73-2.08-4.52-5-4.42-7.21C93.86,40.91,95.74,44,95.71,46.38Z"/><path class="cls-11" d="M26,45.67c-.48,1.35-1.56,1.83-2.37,2.54s-1.48,0-1.81-.5.36-.91.85-1.16A5.85,5.85,0,0,1,26,45.67Z"/></g></g></svg>